<svg width="2891" height="670" viewBox="0 0 2891 670" fill="none" xmlns="http://www.w3.org/2000/svg">
<path fill-rule="evenodd" clip-rule="evenodd" d="M335 670C520.015 670 670 520.015 670 335C670 149.985 520.015 0 335 0C149.985 0 0 149.985 0 335C0 520.015 149.985 670 335 670ZM345.769 167.5C345.769 210.196 374.168 244.808 409.201 244.808C444.233 244.808 472.633 210.196 472.633 167.5C472.633 124.804 444.233 90.1923 409.201 90.1923C374.168 90.1923 345.769 124.804 345.769 167.5ZM220.312 283.147C229.189 324.91 208.607 364.67 174.34 371.954C140.073 379.237 105.098 351.286 96.2209 309.524C87.3439 267.761 107.927 228.001 142.194 220.717C176.46 213.433 211.436 241.384 220.312 283.147ZM249.01 456.158C243.727 444.401 240.799 431.37 240.799 417.65C240.799 404.221 229.913 393.335 216.483 393.335H170.82C157.391 393.335 146.505 404.221 146.505 417.65C146.505 478.105 175.045 531.918 219.196 566.298C230.012 574.719 243.235 579.622 257.568 579.575C270.841 579.532 281.72 575.263 289.183 571.329C302.538 564.29 314.41 552.844 320.93 546.557C322.122 545.408 323.242 544.325 324.3 543.302C330.242 537.556 339.395 537.556 345.338 543.302C346.396 544.325 347.515 545.408 348.707 546.557C355.228 552.844 367.1 564.29 380.455 571.329C387.918 575.263 398.797 579.532 412.07 579.575C426.402 579.622 439.626 574.719 450.442 566.298C494.593 531.918 523.133 478.105 523.133 417.65C523.133 404.221 512.246 393.335 498.817 393.335H453.154C439.725 393.335 428.838 404.221 428.838 417.65C428.838 431.37 425.911 444.401 420.628 456.158C415.989 466.482 402.743 467.331 394.1 460.023C391.82 458.096 389.477 456.206 387.114 454.429C376.682 446.583 358.449 435.008 334.819 435.008C311.189 435.008 292.956 446.583 282.524 454.429C280.16 456.206 277.818 458.096 275.538 460.023C266.894 467.331 253.649 466.482 249.01 456.158ZM528.314 220.738C562.581 228.022 583.164 267.782 574.287 309.545C565.41 351.308 530.435 379.259 496.168 371.975C461.901 364.691 441.318 324.931 450.195 283.169C459.072 241.406 494.048 213.455 528.314 220.738ZM260.532 244.808C225.5 244.808 197.1 210.196 197.1 167.5C197.1 124.804 225.5 90.1923 260.532 90.1923C295.565 90.1923 323.964 124.804 323.964 167.5C323.964 210.196 295.565 244.808 260.532 244.808Z" fill="#FF175B"/>
<path d="M1177.14 185.596C1195.97 185.596 1209.75 203.339 1205.1 221.587L1145.73 454.515C1142.47 467.301 1130.96 476.248 1117.76 476.248H1049.2C1035.75 476.248 1024.08 466.953 1021.07 453.84L985.797 300.095L949.114 454.075C946.017 467.075 934.401 476.248 921.038 476.248H852.835C839.623 476.248 828.098 467.277 824.856 454.469L765.897 221.54C761.281 203.304 775.065 185.596 793.876 185.596H833.443C847.523 185.596 859.548 195.756 861.899 209.639L890.468 378.328L928.432 208.173C931.376 194.979 943.083 185.596 956.601 185.596H1019.31C1032.75 185.596 1044.41 194.876 1047.43 207.974L1086.83 378.846L1114.94 209.725C1117.25 195.803 1129.29 185.596 1143.41 185.596H1177.14Z" fill="#FF175B"/>
<path d="M1284.1 158.655C1266.14 158.655 1251.63 153.82 1240.58 144.149C1229.87 134.132 1224.52 121.698 1224.52 106.846C1224.52 91.6483 1229.87 79.0413 1240.58 69.0248C1251.63 59.0083 1266.14 54 1284.1 54C1301.71 54 1315.88 59.0083 1326.58 69.0248C1337.64 79.0413 1343.16 91.6483 1343.16 106.846C1343.16 121.698 1337.64 134.132 1326.58 144.149C1315.88 153.82 1301.71 158.655 1284.1 158.655ZM1305.49 185.596C1321.43 185.596 1334.35 198.518 1334.35 214.458V447.387C1334.35 463.326 1321.43 476.248 1305.49 476.248H1261.67C1245.73 476.248 1232.81 463.326 1232.81 447.387V214.458C1232.81 198.518 1245.73 185.596 1261.67 185.596H1305.49Z" fill="#FF175B"/>
<path d="M1571.96 183.006C1605.47 183.006 1632.06 194.231 1651.75 216.682C1671.44 238.788 1681.28 268.837 1681.28 306.831V447.387C1681.28 463.326 1668.36 476.248 1652.42 476.248H1608.59C1592.66 476.248 1579.73 463.326 1579.73 447.387V320.301C1579.73 303.722 1575.42 290.77 1566.78 281.444C1558.15 271.773 1546.58 266.937 1532.07 266.937C1516.87 266.937 1504.95 271.773 1496.32 281.444C1487.68 290.77 1483.37 303.722 1483.37 320.301V447.387C1483.37 463.326 1470.45 476.248 1454.51 476.248H1410.68C1394.74 476.248 1381.82 463.326 1381.82 447.387V214.458C1381.82 198.518 1394.74 185.596 1410.68 185.596H1454.51C1470.45 185.596 1483.37 198.518 1483.37 214.458V227.044C1492.35 213.919 1504.44 203.384 1519.63 195.44C1534.83 187.151 1552.27 183.006 1571.96 183.006Z" fill="#FF175B"/>
<path d="M1710.06 330.663C1710.06 300.614 1715.41 274.363 1726.12 251.913C1737.17 229.462 1752.2 212.192 1771.19 200.103C1790.19 188.014 1811.26 181.97 1834.4 181.97C1853.05 181.97 1869.63 185.942 1884.14 193.886C1898.99 201.485 1910.56 212.019 1918.85 225.49V121.719C1918.85 105.779 1931.77 92.8572 1947.71 92.8572H1992.05C2007.99 92.8572 2020.92 105.779 2020.92 121.719V447.387C2020.92 463.326 2007.99 476.248 1992.05 476.248H1947.71C1931.77 476.248 1918.85 463.326 1918.85 447.387V435.837C1910.91 449.307 1899.68 460.014 1885.17 467.959C1870.67 475.903 1853.57 479.875 1833.88 479.875C1810.74 479.875 1789.67 473.83 1770.68 461.741C1752.02 449.653 1737.17 432.383 1726.12 409.932C1715.41 387.135 1710.06 360.713 1710.06 330.663ZM1919.37 330.663C1919.37 312.012 1914.19 297.332 1903.83 286.625C1893.81 275.918 1881.38 270.564 1866.52 270.564C1851.33 270.564 1838.72 275.918 1828.7 286.625C1818.69 296.987 1813.68 311.666 1813.68 330.663C1813.68 349.315 1818.69 364.167 1828.7 375.219C1838.72 385.927 1851.33 391.28 1866.52 391.28C1881.38 391.28 1893.81 385.927 1903.83 375.219C1914.19 364.512 1919.37 349.66 1919.37 330.663Z" fill="#FF175B"/>
<path d="M2169.97 226.008C2177.91 212.537 2189.14 201.83 2203.64 193.886C2218.15 185.942 2235.25 181.97 2254.93 181.97C2278.07 181.97 2298.97 188.014 2317.62 200.103C2336.62 212.192 2351.47 229.462 2362.18 251.913C2373.23 274.363 2378.76 300.614 2378.76 330.663C2378.76 360.713 2373.23 387.135 2362.18 409.932C2351.47 432.383 2336.62 449.653 2317.62 461.741C2298.97 473.83 2278.07 479.875 2254.93 479.875C2235.25 479.875 2218.15 475.903 2203.64 467.959C2189.48 460.014 2178.26 449.307 2169.97 435.837V586.236C2169.97 602.176 2157.04 615.098 2141.1 615.098H2097.28C2081.34 615.098 2068.42 602.176 2068.42 586.236V214.458C2068.42 198.518 2081.34 185.596 2097.28 185.596H2141.1C2157.04 185.596 2169.97 198.518 2169.97 214.458V226.008ZM2275.66 330.663C2275.66 311.666 2270.48 296.987 2260.11 286.625C2250.1 275.918 2237.66 270.564 2222.81 270.564C2207.96 270.564 2195.35 275.918 2184.99 286.625C2174.97 297.332 2169.97 312.012 2169.97 330.663C2169.97 349.66 2174.97 364.512 2184.99 375.219C2195.35 385.927 2207.96 391.28 2222.81 391.28C2237.66 391.28 2250.1 385.927 2260.11 375.219C2270.48 364.167 2275.66 349.315 2275.66 330.663Z" fill="#FF175B"/>
<path d="M2687.9 327.555C2687.9 341.227 2676.12 351.387 2662.45 351.387H2494.13C2495.17 367.275 2499.49 379.191 2507.08 387.136C2515.03 394.734 2525.04 398.534 2537.13 398.534C2547.99 398.534 2556.86 395.406 2563.74 389.15C2571.26 382.311 2579.87 375.737 2590.04 375.737H2645.64C2664.12 375.737 2677.94 393.163 2669.04 409.368C2665.15 416.456 2660.56 423.206 2655.26 429.619C2642.48 445.162 2626.25 457.424 2606.56 466.404C2586.87 475.385 2565.11 479.875 2541.28 479.875C2512.61 479.875 2487.05 473.83 2464.6 461.741C2442.49 449.653 2425.05 432.383 2412.27 409.932C2399.84 387.481 2393.62 361.058 2393.62 330.663C2393.62 300.268 2399.84 274.018 2412.27 251.913C2424.71 229.462 2441.98 212.192 2464.08 200.103C2486.53 188.014 2512.26 181.97 2541.28 181.97C2569.95 181.97 2595.33 187.841 2617.44 199.585C2639.54 211.328 2656.81 228.253 2669.25 250.358C2681.68 272.118 2687.9 297.85 2687.9 327.555ZM2584.28 302.168C2584.28 289.734 2580.14 280.062 2571.85 273.154C2563.56 265.901 2553.19 262.275 2540.76 262.275C2528.33 262.275 2518.14 265.729 2510.19 272.636C2502.25 279.199 2497.07 289.043 2494.65 302.168H2584.28Z" fill="#FF175B"/>
<path d="M2861.72 389.726C2877.66 389.726 2890.58 402.648 2890.58 418.588V447.387C2890.58 463.326 2877.66 476.248 2861.72 476.248H2846.55C2772.29 476.248 2735.16 439.463 2735.16 365.894V270.046H2728.27C2712.33 270.046 2699.41 257.124 2699.41 241.184V214.458C2699.41 198.518 2712.33 185.596 2728.27 185.596H2735.16V143.997C2735.16 128.057 2748.08 115.135 2764.02 115.135H2808.36C2824.3 115.135 2837.22 128.057 2837.22 143.997V185.596H2861.2C2877.14 185.596 2890.07 198.518 2890.07 214.458V241.184C2890.07 257.124 2877.14 270.046 2861.2 270.046H2837.22V367.448C2837.22 375.392 2838.95 381.091 2842.4 384.545C2846.2 387.999 2852.42 389.726 2861.05 389.726H2861.72Z" fill="#FF175B"/>
</svg>
