<svg width="2936" height="2936" viewBox="0 0 2936 2936" fill="none" xmlns="http://www.w3.org/2000/svg">
<path fill-rule="evenodd" clip-rule="evenodd" d="M1468 2936C657.246 2936 0 2278.75 0 1468C0 657.246 657.246 0 1468 0C2278.75 0 2936 657.246 2936 1468C2936 2278.75 2278.75 2936 1468 2936ZM1420.81 734.001C1420.81 921.098 1296.36 1072.77 1142.85 1072.77C989.333 1072.77 864.884 921.098 864.884 734.001C864.884 546.903 989.333 395.231 1142.85 395.231C1296.36 395.231 1420.81 546.904 1420.81 734.001ZM1970.57 1240.78C1931.67 1423.79 2021.87 1598.02 2172.03 1629.94C2322.19 1661.85 2475.46 1539.37 2514.35 1356.36C2553.25 1173.35 2463.06 999.12 2312.9 967.203C2162.74 935.285 2009.47 1057.77 1970.57 1240.78ZM1844.82 1998.93C1867.97 1947.41 1880.8 1890.3 1880.8 1830.18C1880.8 1771.33 1928.51 1723.63 1987.35 1723.63H2187.45C2246.3 1723.63 2294.01 1771.33 2294.01 1830.18C2294.01 2095.1 2168.94 2330.92 1975.47 2481.57C1928.07 2518.47 1870.13 2539.96 1807.32 2539.75C1749.16 2539.56 1701.48 2520.85 1668.78 2503.62C1610.26 2472.77 1558.23 2422.62 1529.66 2395.07L1529.66 2395.06L1529.66 2395.06C1524.44 2390.03 1519.53 2385.28 1514.89 2380.8C1488.85 2355.62 1448.74 2355.62 1422.7 2380.8C1418.07 2385.28 1413.16 2390.03 1407.94 2395.06C1379.36 2422.61 1327.34 2472.77 1268.82 2503.62C1236.11 2520.85 1188.44 2539.56 1130.28 2539.75C1067.47 2539.96 1009.52 2518.47 962.128 2481.57C768.654 2330.92 643.588 2095.1 643.588 1830.18C643.588 1771.33 691.294 1723.63 750.142 1723.63H950.241C1009.09 1723.63 1056.79 1771.33 1056.79 1830.18C1056.79 1890.3 1069.62 1947.41 1092.78 1998.93C1113.1 2044.17 1171.15 2047.89 1209.02 2015.86C1219.01 2007.42 1229.28 1999.14 1239.64 1991.35C1285.35 1956.97 1365.25 1906.24 1468.8 1906.24C1572.35 1906.24 1652.24 1956.97 1697.96 1991.35C1708.32 1999.14 1718.58 2007.42 1728.57 2015.86C1766.45 2047.89 1824.49 2044.17 1844.82 1998.93ZM620.882 967.297C470.721 999.214 380.526 1173.45 419.426 1356.46C458.325 1539.46 611.589 1661.95 761.75 1630.03C911.911 1598.11 1002.11 1423.88 963.207 1240.87C924.307 1057.86 771.043 935.379 620.882 967.297ZM1794.33 1072.77C1947.84 1072.77 2072.29 921.098 2072.29 734.001C2072.29 546.904 1947.84 395.231 1794.33 395.231C1640.81 395.231 1516.36 546.903 1516.36 734.001C1516.36 921.098 1640.81 1072.77 1794.33 1072.77Z" fill="#FF175B"/>
</svg>
